<?xml version="1.0" encoding="utf-8"?>
<svg viewBox="-0.65 25.4 110.117 157.852" xmlns="http://www.w3.org/2000/svg">
  <defs>
    <clipPath id="clippath">
      <path class="cls-1" d="M37.58,98.54l65.18,27.75c7.41-16.74,7.96-35.44,.7-53.82-2.44-6.14-3.3-8.43-7.1-13.44l-58.78,39.51Z"/>
    </clipPath>
    <linearGradient id="linear-gradient" x1="-111.45" y1="338.48" x2="-111.13" y2="338.48" gradientTransform="translate(23055.54 -69802.72) scale(206.5)" gradientUnits="userSpaceOnUse">
      <stop offset="0" stop-color="#7f00f7"/>
      <stop offset="0.15" stop-color="#8400f2"/>
      <stop offset="0.34" stop-color="#9400e4"/>
      <stop offset="0.55" stop-color="#af00ce"/>
      <stop offset="0.78" stop-color="#d300ae"/>
      <stop offset="1" stop-color="#ff008a"/>
    </linearGradient>
    <linearGradient id="linear-gradient-2" x1="29.45" y1="63.22" x2="101.02" y2="63.22" gradientUnits="userSpaceOnUse">
      <stop offset="0" stop-color="#ffba00"/>
      <stop offset="0.39" stop-color="#ffbb01"/>
      <stop offset="0.55" stop-color="#ffbe08"/>
      <stop offset="0.66" stop-color="#ffc515"/>
      <stop offset="0.75" stop-color="#ffce26"/>
      <stop offset="0.83" stop-color="#ffd93c"/>
      <stop offset="0.9" stop-color="#ffe858"/>
      <stop offset="0.97" stop-color="#fff978"/>
      <stop offset="0.98" stop-color="#ffff84"/>
    </linearGradient>
    <clipPath id="clippath-1">
      <path class="cls-9" d="M36.97,27.87c-2.66,0-5.24,.11-7.52,.31l8.19,70.39,58.72-39.55c-10.19-15.16-26.25-26.4-45.66-30.04-4.14-.77-9.07-1.11-13.73-1.11Z"/>
    </clipPath>
    <linearGradient id="linear-gradient-3" x1="-111.61" y1="338.07" x2="-111.29" y2="338.07" gradientTransform="translate(22896.19 69346.11) scale(204.94 -204.94)" gradientUnits="userSpaceOnUse">
      <stop offset="0" stop-color="#ffba00"/>
      <stop offset="0.15" stop-color="#ffbc04"/>
      <stop offset="0.33" stop-color="#ffc312"/>
      <stop offset="0.52" stop-color="#ffcf29"/>
      <stop offset="0.71" stop-color="#ffe049"/>
      <stop offset="0.91" stop-color="#fff571"/>
      <stop offset="0.98" stop-color="#ffff84"/>
    </linearGradient>
    <clipPath id="clippath-2">
      <path class="cls-1" d="M44.89,169.03c18.2-1.91,35.67-10.81,48.01-26.23,4.1-5.15,7.39-10.73,9.87-16.52l-65.19-27.68,7.31,70.43Z"/>
    </clipPath>
    <linearGradient id="linear-gradient-4" x1="-111.64" y1="338.06" x2="-111.32" y2="338.06" gradientTransform="translate(56785.12 18839.73) rotate(90) scale(167.76)" gradientUnits="userSpaceOnUse">
      <stop offset="0" stop-color="#00e1ff"/>
      <stop offset="0.28" stop-color="#02e1ff"/>
      <stop offset="0.45" stop-color="#0be3ff"/>
      <stop offset="0.59" stop-color="#19e7ff"/>
      <stop offset="0.72" stop-color="#2debff"/>
      <stop offset="0.83" stop-color="#48f2ff"/>
      <stop offset="0.94" stop-color="#68f9ff"/>
      <stop offset="1" stop-color="#7fffff"/>
    </linearGradient>
    <style>
      .cls-1 {
        fill: none;
      }

      .cls-2 {
        fill: url(#linear-gradient);
      }

      .cls-3 {
        clip-path: url(#clippath);
      }

      .cls-4 {
        fill: #fff;
      }

      .cls-5 {
        clip-path: url(#clippath-1);
      }

      .cls-6 {
        clip-path: url(#clippath-2);
      }

      .cls-7 {
        fill: url(#linear-gradient-3);
      }

      .cls-8 {
        fill: url(#linear-gradient-4);
      }

      .cls-9 {
        fill: url(#linear-gradient-2);
      }
    </style>
  </defs>
  <g>
    <g class="cls-3">
      <rect class="cls-2" x="36.37" y="57.71" width="75.57" height="69.9" transform="translate(-3.36 2.79) rotate(-2.11)"/>
    </g>
    <g>
      <path class="cls-9" d="M36.97,27.87c-2.66,0-5.24,.11-7.52,.31l8.19,70.39,58.72-39.55c-10.19-15.16-26.25-26.4-45.66-30.04-4.14-.77-9.07-1.11-13.73-1.11Z"/>
      <g class="cls-5">
        <rect class="cls-7" x="15.94" y="17.03" width="93.93" height="92.38" transform="translate(-22.55 88.77) rotate(-61.78)"/>
      </g>
    </g>
    <g class="cls-6">
      <rect class="cls-8" x="22.24" y="86.18" width="95.88" height="95.27" transform="translate(-77.26 100.74) rotate(-49.68)"/>
    </g>
    <g>
      <path d="M102.4,127.11c.69-4.14-3.35-5.56-5.64-5.73-2.56-.2-4.49,1.11-6.26,2.74-3.61,3.33-6,5.67-10.4,8.22-.17,.1-6.33,3.03-6.51,3.11-7.67,3.55-16.72,4.93-24.57,1.64-.98-.41-1.65-1.42-1.45-2.46s1.04-1.25,1.82-1.47c5.74-1.62,11.42-3.82,16.15-7.46,4.73-3.64,8.46-8.85,9.33-14.76,.88-5.9-1.5-12.42-6.55-15.6-3.98-2.51-9.07-2.72-13.63-1.57-4.56,1.15-8.7,3.52-12.73,5.95-1.34-8.73-2.67-17.45-4.01-26.18-.15-.99-.29-2.05,.14-2.96,.42-.86,1.28-1.41,2.09-1.91,4.38-2.73,8.65-5.77,11.84-9.82,3.19-4.05,5.21-9.25,4.54-14.36-.69-5.22-4.15-9.82-8.59-12.65-4.44-2.82-9.77-4.01-15.03-4.19-2.32-.08-4.97,.13-5.6,3.58-.16,.87-.13,1.75,0,2.62,1.42,9.77,2.84,19.54,4.25,29.32,.14,.98,.28,1.98,.03,2.94-.45,1.7-2.02,2.83-3.47,3.84-9.4,6.58-18.12,14.75-22.83,25.21-4.71,10.46-4.75,23.56,2.12,32.75,6.04,8.09,17.1,12.06,26.91,9.66,1.7-.42,3.57-1,4.99,.89,.69,.91,.97,2.06,.94,3.2-.19,6.61-.46,13.73-4.07,19.36-3.34,5.21-10.47,8.51-15.92,5.58-3.61-1.94-5.67-6.04-9.8-7.36-1.5-.48-3.18-.36-4.49,.52-3.52,2.37-1.67,7.64,1.05,10.67,5.4,6.02,13.4,9.62,21.48,9.66,3.85,.02,7.84-.79,10.9-3.12,2.37-1.8,4.03-4.38,5.22-7.1,3.12-7.13,3.19-15.12,2.84-22.95-.06-1.37,1.41-2.25,2.59-1.56,4.95,2.9,10.25,5.23,15.88,6.29,6.68,1.25,13.88,.57,19.77-2.82,3.99-2.29,7.18-5.7,9.85-9.4,2.63-3.65,5.68-7.91,6.82-12.31m-65.65-6.7c0-1.97,.44-3.92,1.23-5.78,.21-.48,.93-.37,.99,.15,.44,3.87,.83,8.32,1.27,12.59,.02,.18-.11,.34-.29,.37l-.91,.14c-.1,.02-.2-.03-.25-.12-1.28-2.13-2.02-4.58-2.03-7.35m9.3,6.36c-.6-4.37-2.3-15.43-2.93-19.46-.03-.21,.05-.41,.21-.53,4.48-3.49,9.86-6.97,15.62-7.61,2.67-.3,5.54,.11,7.68,1.74,3.34,2.54,4.05,7.57,2.45,11.46-1.6,3.88-5.04,6.74-8.73,8.74-4.22,2.29-9.5,5.04-14.3,5.66m-12.68-84.97c-.72-4.9,6.71-4.68,9.37-2.88,1.55,1.04,2.47,2.82,2.87,4.64,.78,3.56,.02,7.7-1.12,11.19-1.08,3.33-3.62,6.74-6.59,8.72-.58,.39-1.37,.02-1.47-.67l-3.07-21.01Zm-17.28,62.77c1.79-12.62,6.75-22.07,14.53-29.06,1-.9,2.62-.3,2.81,1.04l3.22,22.49s.38,2,.9,5.32c-4.63,5.85-7.03,13.73-4.66,23.04,.15,.59-.32,1.14-.92,1.06-5.18-.62-18.55-5.05-15.87-23.89"/>
      <path class="cls-4" d="M28.67,181.09h-.15c-8.34-.04-16.65-3.78-22.22-9.99-1.71-1.91-3.57-5.24-3.19-8.35,.2-1.61,1-2.93,2.33-3.82,1.5-1.01,3.45-1.24,5.35-.64,2.57,.82,4.36,2.57,6.09,4.26,1.26,1.23,2.45,2.4,3.89,3.17,5.01,2.68,11.59-.54,14.6-5.24,3.52-5.5,3.73-12.59,3.91-18.85,.03-.99-.23-1.9-.73-2.57-.91-1.21-1.94-1.02-3.69-.58l-.26,.06c-10.18,2.48-21.67-1.64-27.95-10.03C.03,119.67-.84,106.42,4.41,94.75c4.16-9.24,11.74-17.62,23.17-25.62,1.27-.89,2.71-1.89,3.07-3.28,.2-.77,.07-1.67-.05-2.54l-4.25-29.32c-.16-1.09-.15-2.05,0-2.95,.84-4.6,4.88-4.46,6.62-4.4,6.11,.22,11.33,1.68,15.53,4.35,4.98,3.16,8.36,8.16,9.05,13.36,.65,4.95-1.08,10.45-4.74,15.11-3.43,4.36-8.04,7.53-12.1,10.05-.7,.44-1.42,.89-1.72,1.5-.29,.61-.2,1.43-.05,2.37l3.78,24.71c3.76-2.23,7.52-4.24,11.72-5.3,5.32-1.34,10.57-.72,14.41,1.7,5.18,3.26,8,9.93,7.01,16.59-.84,5.69-4.38,11.31-9.71,15.4-4.18,3.21-9.42,5.63-16.49,7.63-.84,.24-1.04,.36-1.1,.7-.1,.52,.27,1.1,.85,1.35,9.24,3.88,18.86,.65,23.77-1.62,.32-.15,6.17-2.93,6.46-3.08,3.9-2.27,6.17-4.36,9.3-7.26l.89-.82c1.75-1.62,3.97-3.24,7.02-3,1.8,.14,4.21,.9,5.57,2.64,.92,1.18,1.25,2.61,.98,4.25l-.02,.09c-1.2,4.62-4.4,9.07-6.98,12.64-3.18,4.41-6.5,7.58-10.16,9.68-5.72,3.29-12.98,4.33-20.45,2.94-5.21-.97-10.51-3.07-16.2-6.41-.34-.2-.63-.06-.74,0-.11,.07-.36,.26-.34,.65,.33,7.34,.4,15.81-2.92,23.4-1.43,3.28-3.3,5.8-5.53,7.5-2.87,2.18-6.79,3.33-11.36,3.33Zm-19.95-21.12c-.8,0-1.56,.21-2.17,.62-.85,.57-1.33,1.36-1.46,2.4-.28,2.28,1.15,5.04,2.69,6.77,5.2,5.8,12.95,9.29,20.74,9.33,2.97,0,7.08-.48,10.29-2.92,1.96-1.49,3.62-3.75,4.91-6.71,3.15-7.19,3.07-15.39,2.76-22.5-.04-1,.46-1.94,1.31-2.45,.85-.52,1.92-.52,2.79-.01,5.48,3.22,10.57,5.23,15.55,6.16,7,1.31,13.78,.35,19.09-2.71,3.4-1.96,6.52-4.94,9.53-9.12,2.47-3.42,5.54-7.68,6.65-11.93,.17-1.06-.02-1.93-.59-2.65-.96-1.23-2.84-1.78-4.15-1.88-2.28-.17-4,1.09-5.51,2.48l-.89,.82c-3.11,2.87-5.56,5.14-9.68,7.53-.24,.13-6.54,3.13-6.6,3.15-5.21,2.41-15.43,5.83-25.38,1.65-1.46-.61-2.32-2.12-2.04-3.57,.31-1.62,1.75-2.03,2.53-2.25,6.82-1.92,11.84-4.24,15.81-7.29,4.92-3.78,8.19-8.93,8.95-14.11,.86-5.8-1.65-11.8-6.1-14.6-3.38-2.13-8.06-2.65-12.86-1.45-4.41,1.11-8.41,3.39-12.46,5.84l-1.28,.77-4.24-27.65c-.15-.98-.36-2.33,.23-3.54,.55-1.13,1.61-1.79,2.46-2.33,3.91-2.43,8.34-5.48,11.59-9.59,3.33-4.23,4.91-9.19,4.33-13.61-.61-4.62-3.65-9.08-8.14-11.93-3.9-2.48-8.78-3.83-14.53-4.04-2.63-.1-4.13,.32-4.58,2.76-.12,.68-.12,1.43,0,2.3l4.25,29.32c.15,1.02,.31,2.17,0,3.34-.55,2.09-2.39,3.37-3.86,4.4-11.12,7.78-18.48,15.9-22.49,24.8-4.96,11.02-4.17,23.47,2.01,31.74,5.81,7.77,16.44,11.59,25.87,9.29l.26-.06c1.7-.42,4.02-1,5.77,1.32,.77,1.03,1.18,2.39,1.14,3.83-.19,6.52-.41,13.9-4.22,19.87-3.48,5.43-11.05,9.24-17.23,5.93-1.69-.91-3.04-2.23-4.34-3.5-1.63-1.6-3.17-3.11-5.29-3.78-.48-.15-.98-.23-1.46-.23Zm93.67-32.86h0Zm-70.32,2.37c-.07,0-.15,0-.22-.01-1.95-.23-8.66-1.44-13.15-7.29-3.42-4.45-4.63-10.42-3.59-17.74,1.78-12.58,6.64-22.29,14.85-29.67,.74-.66,1.77-.86,2.71-.52,.94,.34,1.62,1.17,1.76,2.16l3.22,22.49h0s.39,2.03,.9,5.31l.07,.43-.27,.34c-3.49,4.4-7.1,11.83-4.47,22.17,.15,.6,0,1.23-.4,1.69-.35,.4-.86,.63-1.39,.63Zm.02-2h0Zm-.36-51.39c-.13,0-.29,.04-.44,.17-7.84,7.05-12.49,16.36-14.21,28.46h0c-.96,6.77,.12,12.23,3.2,16.24,3.13,4.07,8,6.01,11.59,6.49-2.67-10.77,.96-18.59,4.62-23.36-.48-3.01-.83-4.84-.83-4.86l-3.23-22.54c-.06-.39-.37-.53-.46-.57-.05-.02-.14-.04-.25-.04Zm-15.64,28.49h0Zm22.9,24.3c-.43,0-.84-.23-1.07-.61-1.43-2.39-2.16-5.03-2.18-7.86h0c0-2.03,.43-4.11,1.31-6.18,.27-.64,.91-1.01,1.61-.9,.69,.1,1.21,.64,1.29,1.33,.27,2.44,.53,5.11,.8,7.81,.15,1.59,.31,3.2,.47,4.79,.07,.71-.42,1.35-1.13,1.46l-.91,.14c-.06,0-.13,.02-.19,.02Zm.65-1.64h0Zm-1.44-10.22c-.31,1.14-.46,2.27-.45,3.38h0c0,2.09,.47,4.07,1.37,5.89-.12-1.2-.24-2.41-.35-3.62-.19-1.93-.37-3.83-.56-5.65Zm6.99,10.87l-.14-.98c-.57-4.16-2.16-14.53-2.92-19.44-.09-.56,.14-1.13,.59-1.48,3.86-3.01,9.74-7.1,16.12-7.82,3.29-.37,6.27,.32,8.39,1.94,3.99,3.04,4.41,8.65,2.77,12.64-1.5,3.64-4.59,6.75-9.18,9.24-4.53,2.46-9.76,5.14-14.65,5.77l-.98,.13Zm-1.04-20.48c.72,4.64,2.1,13.65,2.75,18.21,4.28-.8,8.91-3.19,12.97-5.39,4.18-2.27,6.97-5.05,8.29-8.25,1.55-3.76,.63-8.18-2.13-10.28-1.71-1.31-4.19-1.85-6.96-1.54-5.78,.65-11.24,4.4-14.91,7.25Zm-6.76-42.78c-.27,0-.54-.06-.79-.17-.62-.28-1.05-.84-1.15-1.51l-3.07-21.01c-.27-1.82,.39-3.32,1.84-4.23,2.48-1.56,6.92-1.08,9.08,.38,1.62,1.09,2.79,2.96,3.29,5.26,.89,4.04-.13,8.6-1.14,11.72-1.17,3.61-3.85,7.15-6.99,9.24-.32,.22-.69,.32-1.07,.32Zm.77-25.89c-1.09,0-2.15,.2-2.88,.66-.78,.49-1.08,1.21-.93,2.25l3.07,21.01c2.66-1.84,5.1-5.06,6.12-8.21,.94-2.88,1.88-7.07,1.09-10.67-.39-1.8-1.27-3.23-2.46-4.03-.92-.62-2.5-1.01-4.02-1.01Z"/>
    </g>
  </g>
  <rect class="cls-1" x="2.11" y="27.87" width="106.52" height="152.59"/>
</svg>