<svg width="48" height="48" viewBox="0 0 48 48" fill="none" xmlns="http://www.w3.org/2000/svg">
<path d="M1.5 24.5138C1.5 18.2794 6.26061 13.0768 12.4706 12.5248L16.1135 12.201C21.3608 11.7346 26.6392 11.7346 31.8865 12.201L35.5239 12.5243C41.737 13.0766 46.5 18.2818 46.5 24.5194V25.8207C46.5 30.3765 43.5063 34.3909 39.1396 35.6903V35.6903C35.3567 36.816 31.2607 35.9125 28.3024 33.2998L26.1823 31.4274C24.9366 30.3272 23.0658 30.3299 21.8233 31.4337L19.758 33.2684C16.7958 35.8999 12.6847 36.8153 8.88577 35.6893V35.6893C4.50504 34.3907 1.5 30.3657 1.5 25.7966V24.5138Z" stroke="#FF00AA" stroke-width="1.5"/>
<path d="M34.6365 18.1954L31.28 17.897C26.4378 17.4666 21.5671 17.4666 16.7249 17.897L13.3633 18.1958" stroke="#FF00AA" stroke-width="1.5" stroke-linecap="round"/>
</svg>
