<svg width="38" height="38" viewBox="0 0 38 38" fill="none" xmlns="http://www.w3.org/2000/svg">
<path d="M31.6667 22.1667L32.0203 21.8131L32.3739 22.1667L32.0203 22.5202L31.6667 22.1667ZM5.83341 9.5C5.83341 9.22386 6.05727 9 6.33341 9C6.60956 9 6.83341 9.22386 6.83341 9.5L5.83341 9.5ZM24.1036 13.8964L32.0203 21.8131L31.3132 22.5202L23.3965 14.6036L24.1036 13.8964ZM32.0203 22.5202L24.1036 30.4369L23.3965 29.7298L31.3132 21.8131L32.0203 22.5202ZM31.6667 22.6667L12.3334 22.6667L12.3334 21.6667L31.6667 21.6667L31.6667 22.6667ZM5.83341 16.1667L5.83341 9.5L6.83341 9.5L6.83341 16.1667L5.83341 16.1667ZM12.3334 22.6667C8.74357 22.6667 5.83341 19.7565 5.83341 16.1667L6.83341 16.1667C6.83341 19.2042 9.29585 21.6667 12.3334 21.6667L12.3334 22.6667Z" fill="white"/>
</svg>
