<svg width="80" height="80" viewBox="0 0 80 80" fill="none" xmlns="http://www.w3.org/2000/svg">
<path d="M16.6667 42.5321C16.6667 38.0062 16.6667 35.7433 17.5816 33.7542C18.4965 31.765 20.2146 30.2923 23.6509 27.3469L26.9843 24.4898C33.1953 19.166 36.3008 16.5042 40.0001 16.5042C43.6993 16.5042 46.8049 19.166 53.0159 24.4898L56.3492 27.3469C59.7855 30.2923 61.5037 31.765 62.4185 33.7542C63.3334 35.7433 63.3334 38.0062 63.3334 42.5321V56.6667C63.3334 62.9521 63.3334 66.0948 61.3808 68.0474C59.4282 70 56.2855 70 50.0001 70H30.0001C23.7147 70 20.572 70 18.6194 68.0474C16.6667 66.0948 16.6667 62.9521 16.6667 56.6667V42.5321Z" stroke="#24292F" stroke-width="2"/>
<path d="M48.3334 70V51C48.3334 50.4477 47.8857 50 47.3334 50H32.6667C32.1145 50 31.6667 50.4477 31.6667 51V70" stroke="#24292F" stroke-width="2" stroke-linecap="round" stroke-linejoin="round"/>
</svg>
